<?xml version="1.0" encoding="UTF-8"?>
<svg width="24px" height="30px" viewBox="0 0 24 30" version="1.1" xmlns="http://www.w3.org/2000/svg" xmlns:xlink="http://www.w3.org/1999/xlink">
    <!-- Generator: Sketch 49.1 (51147) - http://www.bohemiancoding.com/sketch -->
    <title>btn-shopping-cart-01-add</title>
    <desc>Created with Sketch.</desc>
    <defs></defs>
    <g id="Page-1" stroke="none" stroke-width="1" fill="none" fill-rule="evenodd">
        <g id="btn-shopping-cart-01-add" transform="translate(-1.000000, 0.000000)" fill-rule="nonzero">
            <g id="Group" fill="#8B572A">
                <path d="M5.63,7.895 C4.644,7.895 3.753,8.732 3.684,9.722 L2.52,26.513 C2.488,26.975 2.636,27.407 2.936,27.731 C3.236,28.055 3.656,28.234 4.115,28.234 L21.799,28.234 C22.259,28.234 22.677,28.055 22.977,27.731 C23.277,27.407 23.425,26.975 23.393,26.513 L22.23,9.722 C22.162,8.732 21.27,7.895 20.284,7.895 L5.63,7.895 Z M21.8,29.759 L4.115,29.759 C3.24770085,29.7666869 2.41735828,29.4083362 1.828,28.772 C1.23687403,28.1324803 0.939629121,27.2751825 1.008,26.407 L2.172,9.616 C2.296,7.826 3.848,6.369 5.631,6.369 L20.283,6.369 C22.066,6.369 23.617,7.826 23.741,9.616 L24.905,26.406 C24.9736561,27.2745199 24.6763915,28.1322371 24.085,28.772 C23.4958768,29.4080775 22.6659521,29.7664046 21.799,29.759 L21.8,29.759 Z" id="Shape"></path>
                <path d="M18.629,10.45 C18.4274353,10.4494703 18.2343366,10.3688906 18.0921839,10.2259877 C17.9500311,10.0830848 17.8704689,9.88956474 17.871,9.688 L17.871,3.046 C17.871,2.207 17.193,1.526 16.36,1.526 L9.554,1.526 C8.72,1.526 8.043,2.207 8.043,3.046 L8.043,9.688 C8.04379703,9.88973771 7.96435228,10.0835149 7.82217078,10.2266343 C7.67998927,10.3697537 7.48673859,10.4504707 7.285,10.451 C7.08326141,10.4504707 6.89001073,10.3697537 6.74782922,10.2266343 C6.60564772,10.0835149 6.52620297,9.88973771 6.527,9.688 L6.527,3.046 C6.527,1.366 7.885,7.10542736e-15 9.554,7.10542736e-15 L16.36,7.10542736e-15 C18.029,7.10542736e-15 19.387,1.366 19.387,3.046 L19.387,9.688 C19.387797,9.88973771 19.3083523,10.0835149 19.1661708,10.2266343 C19.0239893,10.3697537 18.8307386,10.4504707 18.629,10.451" id="Shape"></path>
            </g>
            <g id="Group" fill="#3F3A3A">
                <path d="M5.63,7.895 C4.644,7.895 3.753,8.732 3.684,9.722 L2.52,26.513 C2.488,26.975 2.636,27.407 2.936,27.731 C3.236,28.055 3.656,28.234 4.115,28.234 L21.799,28.234 C22.259,28.234 22.677,28.055 22.977,27.731 C23.277,27.407 23.425,26.975 23.393,26.513 L22.23,9.722 C22.162,8.732 21.27,7.895 20.284,7.895 L5.63,7.895 Z M21.8,29.759 L4.115,29.759 C3.24770085,29.7666869 2.41735828,29.4083362 1.828,28.772 C1.23687403,28.1324803 0.939629121,27.2751825 1.008,26.407 L2.172,9.616 C2.296,7.826 3.848,6.369 5.631,6.369 L20.283,6.369 C22.066,6.369 23.617,7.826 23.741,9.616 L24.905,26.406 C24.9736561,27.2745199 24.6763915,28.1322371 24.085,28.772 C23.4958768,29.4080775 22.6659521,29.7664046 21.799,29.759 L21.8,29.759 Z" id="Shape"></path>
                <path d="M18.629,10.45 C18.4274353,10.4494703 18.2343366,10.3688906 18.0921839,10.2259877 C17.9500311,10.0830848 17.8704689,9.88956474 17.871,9.688 L17.871,3.046 C17.871,2.207 17.193,1.526 16.36,1.526 L9.554,1.526 C8.72,1.526 8.043,2.207 8.043,3.046 L8.043,9.688 C8.04379703,9.88973771 7.96435228,10.0835149 7.82217078,10.2266343 C7.67998927,10.3697537 7.48673859,10.4504707 7.285,10.451 C7.08326141,10.4504707 6.89001073,10.3697537 6.74782922,10.2266343 C6.60564772,10.0835149 6.52620297,9.88973771 6.527,9.688 L6.527,3.046 C6.527,1.366 7.885,7.10542736e-15 9.554,7.10542736e-15 L16.36,7.10542736e-15 C18.029,7.10542736e-15 19.387,1.366 19.387,3.046 L19.387,9.688 C19.387797,9.88973771 19.3083523,10.0835149 19.1661708,10.2266343 C19.0239893,10.3697537 18.8307386,10.4504707 18.629,10.451" id="Shape"></path>
            </g>
        </g>
    </g>
</svg>